<svg width="32" height="32" viewBox="0 0 32 32" xmlns="http://www.w3.org/2000/svg"><title>AlchemyLanguage</title><g fill="none" fill-rule="evenodd"><path d="M15.86.57c8.774-.014 15.9 6.96 15.914 15.577.015 8.618-7.085 15.616-15.86 15.63C7.142 31.795.015 24.82 0 16.203-.015 7.584 7.085.587 15.86.572z" fill="#BA8FF8"/><path d="M11.137 17.396c.042 0 .086-.01.125-.033.12-.07.162-.22.093-.338l-1.205-2.05c-.045-.076-.13-.122-.218-.122H9.33c-1.332 0-2.415-1.064-2.415-2.37v-1.104c0-1.307 1.083-2.37 2.414-2.37h2.776c1.33 0 2.414 1.063 2.414 2.37v.938c0 .137.112.247.25.247.14 0 .253-.11.253-.247v-.94c0-1.578-1.31-2.863-2.917-2.863H9.33C7.72 8.515 6.41 9.8 6.41 11.38v1.102c0 1.58 1.308 2.865 2.917 2.865h.456l1.133 1.926c.045.08.13.123.217.123M22.452 6.866H19.55c-1.61 0-2.917 1.285-2.917 2.865 0 .137.112.248.25.248.14 0 .253-.11.253-.247 0-1.306 1.083-2.37 2.414-2.37h2.902c1.33 0 2.413 1.064 2.413 2.37v2.49c0 1.305-1.082 2.37-2.413 2.37h-.456c-.09 0-.173.046-.218.122l-1.205 2.05c-.07.118-.028.27.092.338.04.023.083.033.126.033.088 0 .172-.044.22-.124l1.132-1.927h.31c1.608 0 2.917-1.285 2.917-2.864V9.73c0-1.58-1.31-2.864-2.918-2.864M17.734 20.19c.85-.585 1.376-1.548 1.376-2.59 0-1.744-1.444-3.163-3.22-3.163-1.776 0-3.22 1.42-3.22 3.163 0 1.042.525 2.005 1.376 2.59-2.155.753-3.614 2.75-3.614 5.046 0 .137.113.248.252.248.14 0 .25-.11.25-.248 0-2.265 1.567-4.212 3.81-4.733.104-.025.182-.112.192-.218.01-.106-.05-.206-.148-.25-.98-.427-1.615-1.383-1.615-2.435 0-1.47 1.22-2.668 2.717-2.668 1.498 0 2.716 1.197 2.716 2.668 0 1.052-.633 2.007-1.613 2.436-.1.043-.16.143-.148.25.01.105.087.192.192.217 2.242.52 3.808 2.468 3.808 4.733 0 .137.113.248.252.248.14 0 .252-.11.252-.248 0-2.295-1.46-4.293-3.616-5.046" fill="#FDFDFD"/><path d="M10.15 12.225l.582-1.355.578 1.355h-1.16zm.583-2.24c-.1 0-.193.06-.232.15l-1.32 3.08c-.055.125.006.27.134.324.128.05.276-.007.33-.133l.294-.687h1.583l.294.686c.04.095.134.152.232.152.033 0 .066-.006.097-.02.13-.052.19-.197.136-.323l-1.315-3.08c-.04-.09-.13-.15-.232-.15zM20.98 8.547c-.14 0-.253.11-.253.248v.475h-1.352c-.14 0-.25.11-.25.248 0 .136.11.247.25.247h2.185c0 .324-.055.952-.473 1.418-.034.04-.08.067-.118.102-.222-.206-.382-.473-.477-.802-.037-.13-.176-.21-.31-.17-.135.038-.212.175-.174.306.078.273.243.627.544.94-.316.148-.695.233-1.154.233-.14 0-.252.11-.252.247s.113.247.252.247c.634 0 1.156-.136 1.576-.388.376.228.885.387 1.58.387.14 0 .253-.11.253-.247s-.114-.247-.253-.247c-.46 0-.842-.08-1.157-.227.02-.02.048-.037.07-.06.524-.59.597-1.34.594-1.74h.518c.14 0 .25-.112.25-.248 0-.137-.11-.248-.25-.248h-1.35v-.475c0-.137-.114-.248-.253-.248" fill="#FDFDFD"/></g></svg>