<svg width="32" height="32" viewBox="0 0 32 32" xmlns="http://www.w3.org/2000/svg"><title>AlchemyVision</title><g fill="none" fill-rule="evenodd"><path d="M0 16.202C-.015 7.584 7.085.587 15.86.572c8.774-.016 15.9 6.958 15.914 15.575.015 8.618-7.085 15.616-15.86 15.63C7.142 31.795.015 24.82 0 16.203" fill="#BA8FF8"/><path d="M16.14 24.99h8.722v-8.568H16.14v8.568zm8.974.494h-9.227c-.14 0-.252-.11-.252-.247v-9.062c0-.137.113-.248.252-.248h9.227c.14 0 .252.11.252.248v9.062c0 .137-.113.247-.252.247z" fill="#FDFDFD"/><path d="M25.114 25.484c-.083 0-.164-.04-.212-.114l-2.01-3.1-1.627.924c-.06.033-.128.04-.192.024-.066-.017-.12-.06-.153-.116l-1.828-3.148-3.08 1.744c-.12.068-.274.028-.343-.09-.07-.12-.03-.27.09-.338l3.3-1.87c.058-.03.127-.04.192-.023s.12.058.153.116l1.826 3.148 1.62-.917c.115-.065.265-.03.337.082l2.14 3.3c.074.114.04.268-.078.34-.043.027-.09.04-.136.04M22.057 17.713c-.273 0-.495.218-.495.486 0 .266.222.485.495.485s.495-.22.495-.486c0-.27-.222-.487-.495-.487m0 1.466c-.55 0-.998-.44-.998-.98 0-.542.447-.98.997-.98s.998.438.998.98c0 .54-.448.98-.998.98M9.52 16.246c.484.192.993.297 1.52.315l1.294-2.19c.046-.076.13-.123.22-.123h2.57c.246-.45.407-.93.48-1.433h-4.043l-2.04 3.432zm1.664.812c-.747 0-1.464-.16-2.132-.475-.063-.03-.11-.084-.132-.15-.02-.066-.012-.138.024-.198l2.254-3.793c.045-.076.13-.123.218-.123h4.47c.07 0 .138.028.186.08.048.05.072.118.065.187-.06.722-.277 1.406-.646 2.03-.045.078-.128.125-.217.125h-2.576l-1.295 2.193c-.045.076-.128.123-.218.123zM6.957 14.278c.275.43.627.816 1.033 1.13l2.045-3.442-2.02-3.47c-.42.32-.78.714-1.062 1.157l1.288 2.185c.046.076.046.17 0 .247l-1.283 2.193zm1.11 1.74c-.05 0-.1-.014-.144-.043-.6-.407-1.11-.95-1.476-1.57-.045-.076-.045-.17 0-.247l1.285-2.196-1.29-2.188c-.044-.076-.044-.17 0-.247.373-.634.895-1.186 1.51-1.598.058-.04.13-.052.198-.037.07.015.127.058.162.118l2.232 3.835c.044.076.044.17 0 .247l-2.26 3.804c-.035.06-.094.102-.163.117-.017.004-.036.005-.054.005zM11.562 11.12l4.044.003c-.072-.507-.233-.992-.48-1.444H12.55c-.09 0-.172-.05-.217-.125l-1.286-2.192c-.516.016-1.018.118-1.497.304l2.012 3.454zm4.325.498l-4.47-.002c-.092 0-.175-.047-.22-.125L8.973 7.673c-.035-.06-.042-.13-.02-.197.02-.066.068-.12.132-.15.664-.304 1.372-.46 2.106-.46.09 0 .174.048.22.125l1.287 2.193h2.577c.09 0 .174.048.218.124.37.63.588 1.318.647 2.044.004.07-.02.138-.068.188-.047.05-.114.08-.185.08z" fill="#FDFDFD"/></g></svg>