<svg width="32" height="32" viewBox="0 0 32 32" xmlns="http://www.w3.org/2000/svg"><title>Alchemy</title><g fill="none" fill-rule="evenodd"><path d="M0 16.202C-.015 7.584 7.085.587 15.86.572c8.774-.016 15.9 6.958 15.914 15.575.015 8.618-7.085 15.616-15.86 15.63C7.142 31.795.015 24.82 0 16.203" fill="#BA8FF8"/><path d="M12.18 24.525c1.07.464 2.21.708 3.39.728l2.56-4.33c.043-.076.127-.123.216-.123h5.086c.567-1 .92-2.078 1.05-3.215h-8.178l-4.125 6.94zm3.534 1.225c-1.4-.002-2.746-.302-4-.89-.065-.03-.112-.085-.133-.15-.02-.067-.01-.138.024-.198l4.338-7.3c.045-.075.128-.122.218-.122h8.6c.07 0 .137.03.185.08.048.05.072.12.066.188-.113 1.356-.52 2.64-1.213 3.814-.046.076-.128.123-.22.123h-5.086l-2.558 4.332c-.045.076-.128.123-.218.123zM7.312 20.635c.598.973 1.396 1.835 2.326 2.51l4.133-6.96L9.69 9.168c-.957.683-1.775 1.562-2.384 2.56l2.546 4.32c.045.078.045.172 0 .25l-2.538 4.335zm2.404 3.116c-.05 0-.1-.014-.143-.043-1.125-.764-2.083-1.783-2.77-2.945-.046-.077-.046-.172 0-.248l2.538-4.34-2.546-4.322c-.045-.076-.045-.17 0-.248.7-1.19 1.68-2.226 2.833-2.998.058-.04.13-.05.2-.037.067.014.126.057.16.117l4.294 7.376c.045.076.045.17 0 .247l-4.346 7.318c-.035.06-.094.102-.163.117-.017.004-.035.006-.054.006zM16.306 14.786l8.18.004c-.128-1.142-.482-2.23-1.05-3.236h-5.092c-.09 0-.173-.048-.218-.124l-2.542-4.334c-1.162.018-2.285.254-3.346.705l4.068 6.986zm8.456.5l-8.602-.005c-.09 0-.174-.046-.22-.123L11.664 7.81c-.036-.06-.043-.132-.022-.198.022-.066.07-.12.135-.15 1.244-.572 2.574-.862 3.95-.862.092 0 .177.047.222.124l2.542 4.335h5.092c.09 0 .173.046.218.123.695 1.184 1.103 2.474 1.213 3.835.006.07-.018.137-.065.187-.048.05-.116.08-.186.08z" fill="#FDFDFD"/></g></svg>