<svg width="32" height="32" viewBox="0 0 32 32" xmlns="http://www.w3.org/2000/svg"><title>AlchemyDataNews</title><g fill="none" fill-rule="evenodd"><path d="M0 16.202C-.015 7.584 7.085.587 15.86.572c8.774-.016 15.9 6.958 15.914 15.575.015 8.618-7.085 15.616-15.86 15.63C7.142 31.795.015 24.82 0 16.203" fill="#BA8FF8"/><path d="M9.52 16.246c.485.192.994.297 1.52.315l1.295-2.19c.045-.076.128-.123.218-.123h2.572c.246-.45.407-.93.48-1.433H11.56l-2.04 3.432zm1.665.812c-.747 0-1.464-.16-2.132-.475-.063-.03-.112-.084-.132-.15-.02-.066-.01-.138.024-.198l2.255-3.793c.044-.076.127-.123.216-.123h4.47c.07 0 .138.028.186.08.048.05.072.118.066.186-.06.723-.278 1.407-.647 2.032-.044.077-.127.124-.217.124h-2.575l-1.296 2.193c-.044.076-.128.123-.217.123zM6.958 14.278c.274.43.627.816 1.033 1.13l2.045-3.442-2.02-3.47c-.42.32-.78.714-1.06 1.157l1.287 2.185c.044.076.044.17 0 .247l-1.284 2.193zm1.11 1.74c-.052 0-.102-.014-.144-.043-.6-.407-1.11-.95-1.476-1.57-.046-.076-.046-.17 0-.247l1.284-2.196-1.29-2.188c-.044-.076-.044-.17 0-.247.373-.634.895-1.186 1.51-1.598.06-.04.132-.052.2-.037.067.015.126.058.16.118l2.233 3.835c.044.076.044.17 0 .247l-2.26 3.804c-.035.06-.095.102-.163.117-.018.004-.037.005-.055.005zM11.563 11.12l4.044.003c-.072-.507-.234-.99-.48-1.444H12.55c-.09 0-.173-.05-.218-.125l-1.286-2.192c-.517.016-1.02.118-1.497.304l2.013 3.454zm4.325.498l-4.47-.002c-.092 0-.175-.047-.22-.125L8.974 7.673c-.035-.06-.042-.13-.02-.197.02-.066.068-.12.132-.15.663-.304 1.372-.46 2.105-.46.092 0 .175.048.22.125l1.288 2.193h2.577c.09 0 .173.048.218.124.37.63.588 1.32.646 2.044.005.07-.02.138-.067.188-.048.05-.115.08-.185.08zM23.495 23.257h-5.137c-.14 0-.252-.11-.252-.247s.112-.247.252-.247h5.137c.14 0 .252.11.252.247s-.113.247-.252.247M23.495 20.952h-5.137c-.14 0-.252-.11-.252-.247s.112-.247.252-.247h5.137c.14 0 .252.11.252.247s-.113.247-.252.247M23.495 18.56h-5.137c-.14 0-.252-.11-.252-.248 0-.136.112-.246.252-.246h5.137c.14 0 .252.11.252.246 0 .138-.113.248-.252.248" fill="#FDFDFD"/><path d="M16.992 24.99h7.87v-8.578h-7.87v8.578zm8.122.494H16.74c-.14 0-.25-.11-.25-.247v-9.072c0-.137.11-.248.25-.248h8.374c.14 0 .252.11.252.248v9.072c0 .137-.113.247-.252.247z" fill="#FDFDFD"/></g></svg>