<svg width="32" height="32" viewBox="0 0 32 32" xmlns="http://www.w3.org/2000/svg"><title>ConceptExpansion</title><g fill="none" fill-rule="evenodd"><path d="M0 16.202C-.015 7.584 7.085.587 15.86.572c8.774-.016 15.9 6.958 15.914 15.575.015 8.618-7.085 15.616-15.86 15.63C7.142 31.795.015 24.82 0 16.203" fill="#BA8FF8"/><path d="M18.796 9.036h6.066V7.36h-6.066v1.676zm0 7.977h6.066v-1.675h-6.066v1.675zm0 7.977h6.066v-1.676h-6.066v1.676zm-8.864-5.85c-1.665 0-3.02-1.33-3.02-2.965 0-1.635 1.355-2.965 3.02-2.965 1.664 0 3.02 1.33 3.02 2.965 0 1.635-1.356 2.966-3.02 2.966zm8.612-9.61h6.57c.14 0 .252-.11.252-.247v-2.17c0-.136-.113-.247-.252-.247h-6.57c-.14 0-.252.11-.252.248v.837H15.98c-.028-.01-.06-.017-.093-.017-.14 0-.252.11-.252.247v7.747h-2.193c-.13-1.792-1.653-3.212-3.51-3.212-1.942 0-3.523 1.552-3.523 3.46s1.58 3.46 3.522 3.46c1.857 0 3.38-1.42 3.51-3.213h2.193v7.767c0 .135.113.245.252.245h2.405v.802c0 .137.113.247.252.247h6.57c.14 0 .252-.11.252-.247v-2.17c0-.137-.113-.247-.252-.247h-6.57c-.14 0-.252.11-.252.247v.874H16.14v-7.518h2.152v.84c0 .135.113.245.252.245h6.57c.14 0 .252-.11.252-.246v-2.17c0-.136-.113-.247-.252-.247h-6.57c-.14 0-.252.11-.252.247v.837H16.14v-7.48h2.152v.836c0 .137.113.248.252.248z" fill="#FDFDFD"/></g></svg>