<svg width="32" height="32" viewBox="0 0 32 32" xmlns="http://www.w3.org/2000/svg"><title>ConceptInsights</title><g fill="none" fill-rule="evenodd"><path d="M0 16.202C-.015 7.584 7.085.587 15.86.572c8.774-.016 15.9 6.958 15.914 15.575.015 8.618-7.085 15.616-15.86 15.63C7.142 31.795.015 24.82 0 16.203" fill="#BA8FF8"/><path d="M22.197 18.795c-1.464 0-2.655-1.165-2.666-2.6.002-.007.005-.013.005-.02 0-.008-.003-.013-.004-.02.012-1.436 1.203-2.6 2.667-2.6 1.47 0 2.668 1.175 2.668 2.62 0 1.444-1.197 2.62-2.668 2.62m-13.725-1.09c-.858 0-1.557-.687-1.557-1.53 0-.844.7-1.53 1.557-1.53.86 0 1.557.686 1.557 1.53 0 .843-.7 1.53-1.558 1.53m11.1 5.755c0 .843-.697 1.53-1.555 1.53-.86 0-1.557-.687-1.557-1.53s.698-1.53 1.557-1.53c.858 0 1.556.687 1.556 1.53m-11.1 1.53c-.86 0-1.558-.687-1.558-1.53s.7-1.53 1.557-1.53c.86 0 1.557.687 1.557 1.53s-.7 1.53-1.558 1.53m7.988-16.1c0-.844.698-1.53 1.557-1.53.858 0 1.556.686 1.556 1.53 0 .546-.295 1.023-.735 1.293-.012.004-.026.006-.037.012-.008.005-.014.014-.022.02-.226.126-.483.203-.76.203-.86 0-1.558-.685-1.558-1.528m5.737 4.17c-.457 0-.89.097-1.283.27l-1.65-2.84c.49-.37.813-.947.813-1.6 0-1.117-.924-2.024-2.06-2.024-1.137 0-2.06.907-2.06 2.024 0 1.115.923 2.023 2.06 2.023.29 0 .564-.06.815-.166l1.64 2.818c-.804.514-1.354 1.373-1.434 2.362h-8.53c-.127-.998-.986-1.776-2.036-1.776-1.136 0-2.06.91-2.06 2.025 0 1.116.924 2.023 2.06 2.023 1.05 0 1.91-.777 2.035-1.776h8.53c.027.328.104.643.227.934l-9.106 4.947c-.373-.522-.988-.866-1.686-.866-1.136 0-2.06.907-2.06 2.023s.924 2.023 2.06 2.023c1.136 0 2.06-.907 2.06-2.023 0-.254-.052-.494-.14-.718l9.102-4.945c.245.39.573.726.963.98l-1.64 2.818c-.247-.102-.517-.158-.8-.158-1.137 0-2.06.907-2.06 2.023s.923 2.023 2.06 2.023c1.136 0 2.06-.907 2.06-2.023 0-.66-.328-1.242-.828-1.61l1.65-2.836c.396.175.834.275 1.297.275 1.75 0 3.17-1.397 3.17-3.115 0-1.718-1.42-3.116-3.17-3.116" fill="#FDFDFD"/></g></svg>