<svg width="32" height="32" viewBox="0 0 32 32" xmlns="http://www.w3.org/2000/svg"><title>Dialog</title><g fill="none" fill-rule="evenodd"><path d="M0 16.202C-.015 7.584 7.085.587 15.86.572c8.774-.016 15.9 6.958 15.914 15.575.015 8.618-7.085 15.616-15.86 15.63C7.142 31.795.015 24.82 0 16.203" fill="#BA8FF8"/><path d="M15.906 25.484c-.043 0-.087-.01-.126-.033-.12-.068-.162-.22-.093-.337l2.737-4.654h2.195c2.35 0 4.26-1.886 4.26-4.203v-4.694c0-2.317-1.91-4.203-4.26-4.203h-9.392c-2.37 0-4.297 1.886-4.297 4.203v4.694c0 2.317 1.93 4.202 4.298 4.202h4.11c.14 0 .252.11.252.246 0 .137-.113.247-.252.247h-4.11c-2.647 0-4.8-2.106-4.8-4.696v-4.694c0-2.59 2.153-4.697 4.8-4.697h9.39c2.628 0 4.766 2.107 4.766 4.697v4.694c0 2.59-2.138 4.696-4.765 4.696h-1.905l-2.59 4.407c-.048.08-.133.124-.22.124" fill="#FDFDFD"/><path d="M12.782 13.91c0-.475-.392-.86-.875-.86-.484 0-.877.385-.877.86s.393.86.877.86c.483 0 .875-.385.875-.86M16.782 13.91c0-.475-.392-.86-.876-.86s-.876.385-.876.86.392.86.876.86.876-.385.876-.86M20.777 13.91c0-.476-.392-.86-.876-.86-.483 0-.875.384-.875.86 0 .474.392.86.876.86.485 0 .877-.386.877-.86" fill="#FDFDFD"/></g></svg>