<svg width="32" height="32" viewBox="0 0 32 32" xmlns="http://www.w3.org/2000/svg"><title>DocumentConversion</title><g fill="none" fill-rule="evenodd"><path d="M0 16.202C-.015 7.584 7.085.587 15.86.572c8.774-.016 15.9 6.958 15.914 15.575.015 8.618-7.085 15.616-15.86 15.63C7.142 31.795.015 24.82 0 16.203" fill="#BA8FF8"/><path d="M18.824 9.033h6.054V7.36h-6.054v1.673zM6.93 20.47h7.362v-8.58H6.93v8.58zm11.894-3.46h6.054V15.34h-6.054v1.673zm0 7.98h6.054v-1.674h-6.054v1.674zm-.252-15.46h6.557c.14 0 .25-.112.25-.25V7.114c0-.136-.11-.247-.25-.247H18.57c-.14 0-.252.11-.252.247v.835h-7.706c-.14 0-.252.11-.252.247v3.202H6.677c-.14 0-.253.11-.253.247v9.072c0 .137.113.247.253.247h3.688c0 .004-.003.007-.003.01v3.18c0 .138.112.25.252.25h7.706v.834c0 .136.113.247.252.247h6.557c.14 0 .25-.11.25-.247V23.07c0-.138-.11-.25-.25-.25H18.57c-.14 0-.252.112-.252.25v.837h-7.454v-2.933l-.002-.01h3.68c.14 0 .252-.11.252-.248v-4.294h3.524v.837c0 .135.113.246.252.246h6.557c.14 0 .25-.11.25-.247v-2.17c0-.136-.11-.247-.25-.247H18.57c-.14 0-.252.11-.252.248v.837h-3.524v-4.283c0-.137-.113-.247-.252-.247h-3.678V8.443h7.454v.838c0 .138.113.25.252.25z" fill="#FDFDFD"/><path d="M8.203 18.595h4.822c.14 0 .252-.11.252-.248 0-.136-.113-.246-.252-.246H8.203c-.14 0-.252.11-.252.247 0 .138.113.248.253.248M8.203 16.422h4.822c.14 0 .252-.11.252-.248 0-.136-.113-.246-.252-.246H8.203c-.14 0-.252.11-.252.246 0 .138.113.248.253.248M8.203 14.25h4.822c.14 0 .252-.112.252-.248 0-.137-.113-.248-.252-.248H8.203c-.14 0-.252.11-.252.248 0 .136.113.247.253.247" fill="#FDFDFD"/></g></svg>