<svg width="32" height="32" viewBox="0 0 32 32" xmlns="http://www.w3.org/2000/svg"><title>NaturalLanguageClassifier</title><g fill="none" fill-rule="evenodd"><path d="M0 16.202C-.015 7.584 7.085.587 15.86.572c8.774-.016 15.9 6.958 15.914 15.575.015 8.618-7.085 15.616-15.86 15.63C7.142 31.795.015 24.82 0 16.203" fill="#BA8FF8"/><path d="M6.93 16.946h4.738V15.41h-4.74v1.536zm.86-8.103c0-.817.678-1.482 1.51-1.482s1.508.666 1.508 1.483c0 .817-.676 1.482-1.508 1.482S7.79 9.66 7.79 8.843zm4.13 6.072H9.55v-4.12c.99-.124 1.762-.946 1.762-1.952 0-1.09-.903-1.977-2.012-1.977-1.11 0-2.013.887-2.013 1.977 0 1.005.77 1.828 1.76 1.952v4.12h-2.37c-.14 0-.252.11-.252.247v2.032c0 .136.113.247.253.247h5.242c.14 0 .252-.11.252-.246v-2.032c0-.137-.113-.247-.252-.247zM13.534 16.946h4.74V15.41h-4.74v1.536zm.904 8.043h2.932v-2.88h-2.932v2.88zm4.087-10.075h-5.243c-.14 0-.252.11-.252.247v2.032c0 .136.113.247.252.247h2.37v4.175h-1.466c-.14 0-.252.11-.252.247v3.375c0 .136.113.247.252.247h3.436c.14 0 .25-.11.25-.247v-3.375c0-.136-.11-.247-.25-.247h-1.467V17.44h2.37c.14 0 .252-.11.252-.246v-2.032c0-.137-.112-.247-.252-.247zM20.138 16.946h4.74V15.41h-4.74v1.536zm2.37-9.338l1.473 2.506h-2.946l1.474-2.506zm2.622 7.307h-2.37V10.61h1.657c.09 0 .174-.048.218-.124.045-.077.045-.17 0-.248l-1.91-3.248c-.09-.154-.346-.154-.436 0l-1.91 3.248c-.045.077-.045.17 0 .248.045.076.128.123.218.123h1.658v4.305h-2.37c-.14 0-.25.11-.25.247v2.032c0 .136.11.247.25.247h5.244c.14 0 .252-.11.252-.246v-2.032c0-.137-.112-.247-.252-.247z" fill="#FDFDFD"/></g></svg>