<svg width="32" height="32" viewBox="0 0 32 32" xmlns="http://www.w3.org/2000/svg"><title>PersonalityInsights</title><g fill="none" fill-rule="evenodd"><path d="M0 16.202C-.015 7.584 7.085.587 15.86.572c8.774-.016 15.9 6.958 15.914 15.575.015 8.618-7.085 15.616-15.86 15.63C7.142 31.795.015 24.82 0 16.203" fill="#BA8FF8"/><path d="M21.875 10.42l1.42-2.76 1.425 2.76h-2.845zM6.93 8.89c0-.843.697-1.53 1.556-1.53.858 0 1.557.687 1.557 1.53s-.7 1.53-1.557 1.53c-.86 0-1.557-.687-1.557-1.53zm7.412 1.53h3.115V7.36h-3.115v3.06zm11.012.135L23.522 7c-.086-.165-.364-.165-.45 0l-1.832 3.555c-.04.077-.035.168.01.24.046.074.128.12.215.12h1.582v1.43c0 .728-.36 1.096-1.072 1.096h-5.82v-2.526h1.554c.138 0 .25-.11.25-.247V7.113c0-.136-.112-.247-.25-.247h-3.62c-.14 0-.252.11-.252.247v3.554c0 .136.113.247.252.247h1.56v2.527H9.8c-.704 0-1.062-.367-1.062-1.095V10.89c1.017-.125 1.81-.97 1.81-2 0-1.116-.926-2.024-2.062-2.024-1.137 0-2.062.908-2.062 2.024 0 1.03.793 1.876 1.81 2v1.455c0 .996.586 1.59 1.567 1.59h5.85v2.018c-1.078.124-1.922 1.018-1.922 2.11 0 .65.302 1.253.8 1.653-1.35.54-2.25 1.825-2.25 3.295v2.227h.504V23.01c0-1.426.986-2.65 2.4-2.98.104-.025.18-.113.19-.218.01-.106-.048-.207-.147-.25-.603-.263-.993-.852-.993-1.5 0-.903.75-1.64 1.67-1.64.922 0 1.672.737 1.672 1.64 0 .648-.39 1.236-.993 1.5-.098.044-.157.144-.147.25.01.105.088.193.193.217 1.412.33 2.4 1.554 2.4 2.98v2.227h.502V23.01c0-1.47-.9-2.755-2.25-3.294.498-.4.8-1.004.8-1.653 0-1.092-.844-1.986-1.923-2.11v-2.017h5.82c.987 0 1.576-.595 1.576-1.59v-1.432h1.58c.087 0 .17-.045.214-.118.046-.073.05-.164.01-.24z" fill="#FDFDFD"/></g></svg>