<svg width="32" height="32" viewBox="0 0 32 32" xmlns="http://www.w3.org/2000/svg"><title>RelationshipExtraction</title><g fill="none" fill-rule="evenodd"><path d="M0 16.202C-.015 7.584 7.085.587 15.86.572c8.774-.016 15.9 6.958 15.914 15.575.015 8.618-7.085 15.616-15.86 15.63C7.142 31.795.015 24.82 0 16.203" fill="#BA8FF8"/><path d="M6.93 11.395h4.796v-1.56H6.93v1.56zm5.047.496h-5.3c-.14 0-.253-.11-.253-.247V9.59c0-.138.113-.248.252-.248h5.3c.14 0 .253.11.253.247v2.053c0 .137-.113.248-.253.248zM13.552 11.395h11.326v-1.56H13.552v1.56zm11.577.496H13.3c-.14 0-.252-.11-.252-.247V9.59c0-.138.113-.248.252-.248h11.83c.14 0 .25.11.25.247v2.053c0 .137-.11.248-.25.248zM20.08 16.955h4.798v-1.56H20.08v1.56zm5.05.494h-5.3c-.14 0-.253-.11-.253-.248v-2.054c0-.137.113-.247.252-.247h5.3c.14 0 .25.11.25.248v2.054c0 .137-.11.247-.25.247zM6.93 16.955h11.325v-1.56H6.93v1.56zm11.576.494H6.676c-.14 0-.252-.11-.252-.248v-2.054c0-.137.113-.247.252-.247h11.83c.14 0 .252.11.252.248v2.054c0 .137-.112.247-.252.247zM6.93 22.512h4.796v-1.56H6.93v1.56zm5.047.495h-5.3c-.14 0-.253-.11-.253-.248v-2.055c0-.136.113-.247.252-.247h5.3c.14 0 .253.11.253.247v2.054c0 .136-.113.247-.253.247zM13.552 22.512h11.326v-1.56H13.552v1.56zm11.577.495H13.3c-.14 0-.252-.11-.252-.248v-2.055c0-.136.113-.247.252-.247h11.83c.14 0 .25.11.25.247v2.054c0 .136-.11.247-.25.247z" fill="#FDFDFD"/></g></svg>