<svg width="32" height="32" viewBox="0 0 32 32" xmlns="http://www.w3.org/2000/svg"><title>RetrieveandRank</title><g fill="none" fill-rule="evenodd"><path d="M0 16.202C-.015 7.584 7.085.587 15.86.572c8.774-.016 15.9 6.958 15.914 15.575.015 8.618-7.085 15.616-15.86 15.63C7.142 31.795.015 24.82 0 16.203" fill="#BA8FF8"/><path d="M6.93 14.234c0-3.79 3.14-6.873 6.997-6.873 2.095 0 3.972.913 5.255 2.35h-2.505c-.14 0-.252.11-.252.247v1.52c0 .136.113.246.252.246h3.758c.223.555.378 1.142.447 1.756h-5.99c-.14 0-.252.11-.252.246v1.52c0 .136.113.247.252.247h5.91c-.115.61-.315 1.192-.585 1.736h-3.564c-.14 0-.25.11-.25.246v1.518c0 .137.11.248.25.248h2.053c-1.252 1.153-2.93 1.866-4.78 1.866-3.857 0-6.997-3.084-6.997-6.874m13.28-3.006h-3.28v-1.023h2.655c.238.32.447.663.626 1.023m.716 3.006c0 .258-.018.512-.046.764h-5.736v-1.024h5.768c.004.087.014.172.014.26m-1.733 4.513h-2.288v-1.024h3.042c-.22.365-.472.707-.754 1.024m6.115 6.314L19.4 19.26c.02-.02.038-.04.057-.062.036-.024.065-.054.085-.09.404-.45.755-.946 1.04-1.482.02-.026.033-.055.04-.086.15-.292.282-.594.39-.906h4.116c.14 0 .25-.11.25-.247s-.11-.248-.25-.248h-3.962c.124-.452.204-.92.238-1.404h3.726c.14 0 .25-.11.25-.247s-.11-.248-.25-.248h-3.7v-.004c0-.16-.015-.318-.025-.476 0-.01.006-.02.006-.032 0-.018-.006-.034-.01-.052-.02-.284-.056-.565-.11-.84h3.84c.14 0 .25-.11.25-.247s-.11-.247-.25-.247h-3.962c-.087-.323-.19-.64-.318-.942l-.01-.03c-.065-.147-.14-.29-.214-.432h4.504c.14 0 .25-.11.25-.247 0-.138-.11-.25-.25-.25h-4.783c-.12-.195-.25-.385-.388-.57-.017-.04-.045-.076-.08-.104-1.373-1.76-3.527-2.9-5.953-2.9-4.137 0-7.502 3.305-7.502 7.368 0 4.063 3.365 7.368 7.502 7.368 1.978 0 3.774-.76 5.116-1.994l5.908 5.804c.05.048.115.072.18.072.064 0 .13-.024.178-.072.098-.097.098-.254 0-.35" fill="#FDFDFD"/><path d="M10.033 14.988h2.747v-1.024h-2.747v1.024zm3.252.247v-1.518c0-.137-.113-.248-.252-.248H9.78c-.138 0-.25.11-.25.247v1.518c0 .137.112.248.25.248h3.253c.14 0 .252-.11.252-.248zM11.448 18.747h3.192v-1.024h-3.192v1.024zm3.444-1.518h-3.695c-.14 0-.252.11-.252.246v1.518c0 .137.112.248.252.248h3.695c.14 0 .252-.11.252-.248v-1.518c0-.137-.113-.247-.252-.247zM11.448 11.23h3.192v-1.025h-3.192v1.024zm-.25.493h3.694c.14 0 .252-.11.252-.247v-1.52c0-.135-.113-.246-.252-.246h-3.695c-.14 0-.252.11-.252.247v1.52c0 .136.112.246.252.246z" fill="#FDFDFD"/></g></svg>