<svg width="32" height="32" viewBox="0 0 32 32" xmlns="http://www.w3.org/2000/svg"><title>SpeechtoText</title><g fill="none" fill-rule="evenodd"><path d="M0 16.202C-.015 7.584 7.085.587 15.86.572c8.774-.016 15.9 6.958 15.914 15.575.015 8.618-7.085 15.616-15.86 15.63C7.142 31.795.015 24.82 0 16.203" fill="#BA8FF8"/><path d="M14.91 19.303h9.952V7.36H14.91v11.943zM25.114 6.866H14.658c-.14 0-.252.11-.252.247v8.957c-.268-.092-.55-.143-.835-.143H8.96c-1.407 0-2.55 1.128-2.55 2.514v2.224c0 1.386 1.143 2.513 2.55 2.513h.898l1.283 2.184c.048.08.132.124.22.124.042 0 .086-.01.125-.033.12-.067.162-.22.093-.337l-1.43-2.43H8.96c-1.127 0-2.045-.906-2.045-2.02v-2.222c0-1.113.918-2.018 2.046-2.018h4.61c.29 0 .573.072.836.188v2.94c0 .137.113.248.252.248h.978v.866c0 1.113-.926 2.02-2.065 2.02h-1.92c-.14 0-.253.11-.253.246s.113.247.252.247h1.92c1.418 0 2.57-1.127 2.57-2.513v-.866h8.974c.14 0 .252-.11.252-.247V7.114c0-.136-.113-.247-.252-.247z" fill="#FDFDFD"/><path d="M16.68 16.762h6.413c.14 0 .252-.11.252-.248 0-.136-.112-.246-.252-.246H16.68c-.14 0-.252.11-.252.246 0 .138.113.248.252.248M16.683 13.644h6.413c.14 0 .252-.11.252-.247s-.113-.248-.252-.248h-6.413c-.14 0-.252.11-.252.247 0 .136.114.247.253.247M16.684 10.378h6.413c.14 0 .252-.11.252-.247 0-.136-.113-.246-.253-.246h-6.413c-.14 0-.252.11-.252.247 0 .138.112.248.252.248M7.883 13.02c.14 0 .252-.112.252-.25 0-1.744 1.445-3.163 3.22-3.163h.856l-.732.72c-.1.097-.1.254 0 .35.05.05.113.073.178.073.064 0 .13-.024.178-.073l1.163-1.142c.024-.023.043-.05.056-.082.01-.024.013-.05.015-.074 0-.008.004-.014.004-.02 0-.008-.004-.013-.004-.02-.002-.025-.005-.05-.015-.075-.013-.03-.032-.058-.056-.08L11.834 8.04c-.1-.096-.258-.096-.356 0-.1.097-.1.254 0 .35l.734.722h-.856c-2.054 0-3.725 1.64-3.725 3.66 0 .136.114.247.253.247M13.842 19.47c0-.243-.2-.44-.446-.44s-.446.197-.446.44c0 .24.2.437.446.437s.446-.196.446-.438M11.805 19.47c0-.243-.2-.44-.446-.44-.247 0-.447.197-.447.44 0 .24.2.437.446.437s.445-.196.445-.438M8.88 19.47c0 .24.2.437.445.437.246 0 .446-.197.446-.438 0-.243-.2-.44-.445-.44-.246 0-.446.197-.446.44" fill="#FDFDFD"/></g></svg>