<svg width="32" height="32" viewBox="0 0 32 32" xmlns="http://www.w3.org/2000/svg"><title>TexttoSpeech</title><g fill="none" fill-rule="evenodd"><path d="M0 16.028C-.015 7.19 7.135.015 15.972 0 24.81-.015 31.984 7.135 32 15.972 32.015 24.81 24.865 31.985 16.028 32 7.19 32.015.015 24.865 0 16.028" fill="#BA8FF8"/><path d="M25.055 15.742H19.49c-.037-1.118-.623-2.097-1.5-2.674V6.963h7.065v8.78zm.253-9.287h-7.57c-.14 0-.255.112-.255.252v6.087c-.404-.176-.848-.273-1.316-.273l-6.37.002c-1.834 0-3.327 1.492-3.327 3.325v3.216c0 1.835 1.493 3.327 3.327 3.327h1.28l1.672 3.024c.045.084.132.13.22.13.043.002.085-.01.124-.03.122-.07.167-.223.1-.345l-1.82-3.288H9.798c-1.555 0-2.82-1.265-2.82-2.82v-3.215c0-1.554 1.265-2.82 2.82-2.82l6.37.002c1.555-.002 2.82 1.263 2.82 2.818v3.214c0 1.555-1.265 2.82-2.82 2.82H13.38c-.14 0-.253.113-.253.255 0 .14.113.253.253.253h2.787c1.835 0 3.327-1.492 3.327-3.328v-2.814h5.814c.14 0 .254-.113.254-.254V6.707c0-.14-.113-.252-.254-.252zM24.248 19.224c-.14 0-.253.113-.253.253 0 1.786-1.453 3.24-3.24 3.24h-.858l.737-.74c.1-.098.1-.258 0-.357-.098-.1-.26-.1-.358 0l-1.17 1.17c-.023.023-.042.05-.055.083-.01.024-.012.05-.014.075 0 .007-.004.014-.004.02 0 .01.003.015.004.023.002.026.005.052.015.075.014.032.033.06.057.084l1.17 1.168c.048.05.114.075.178.075.065 0 .13-.025.18-.075.098-.1.098-.26 0-.358l-.738-.737h.86c2.064 0 3.744-1.68 3.744-3.746 0-.14-.112-.253-.252-.253" fill="#FDFDFD"/><path d="M16.216 17.459c0-.352-.284-.636-.634-.636-.35 0-.634.284-.634.634 0 .35.284.635.634.635.35 0 .634-.285.634-.634M13.616 17.459c0-.352-.284-.636-.634-.636-.35 0-.634.284-.634.634 0 .35.284.635.634.635.35 0 .634-.285.634-.634M9.748 17.459c0 .348.285.633.635.633.35 0 .634-.285.634-.634 0-.352-.284-.636-.634-.636-.35 0-.634.284-.634.634M19.24 13.946h4.823c.14 0 .254-.113.254-.253s-.114-.254-.255-.254H19.24c-.14 0-.253.112-.253.253 0 .14.113.253.253.253M19.24 11.605h4.823c.14 0 .254-.113.254-.253s-.114-.254-.255-.254H19.24c-.14 0-.253.113-.253.254 0 .14.113.253.253.253M19.24 9.265h4.823c.14 0 .254-.113.254-.253s-.114-.254-.255-.254H19.24c-.14 0-.253.113-.253.254 0 .14.113.253.253.253" fill="#FDFDFD"/></g></svg>