<svg width="32" height="32" viewBox="0 0 32 32" xmlns="http://www.w3.org/2000/svg"><title>ToneAnalyzer</title><g fill="none" fill-rule="evenodd"><path d="M0 16.202C-.015 7.584 7.085.587 15.86.572c8.774-.016 15.9 6.958 15.914 15.575.015 8.618-7.085 15.616-15.86 15.63C7.142 31.795.015 24.82 0 16.203" fill="#BA8FF8"/><path d="M11.487 15.57c0-.198-.163-.358-.364-.358-.202 0-.365.16-.365.357 0 .197.163.357.365.357.2 0 .364-.16.364-.358M15.386 15.57c0-.198-.163-.358-.364-.358-.202 0-.365.16-.365.357 0 .197.163.357.365.357.2 0 .364-.16.364-.358M19.51 9.224c0-.198-.163-.358-.365-.358-.2 0-.365.16-.365.358 0 .197.164.357.365.357.202 0 .364-.16.364-.356M22.424 9.224c0-.198-.163-.358-.365-.358-.202 0-.365.16-.365.358 0 .197.163.357.364.357.2 0 .364-.16.364-.356" fill="#FDFDFD"/><path d="M22.87 6.866h-4.708c-1.385 0-2.51 1.106-2.51 2.466v3.095H9.816c-1.87 0-3.392 1.495-3.392 3.332v3.224c0 1.838 1.522 3.333 3.392 3.333h1.31l1.713 3.04c.046.08.132.127.22.127.042 0 .084-.01.122-.03.122-.067.166-.218.1-.338l-1.857-3.294H9.817c-1.593 0-2.888-1.272-2.888-2.838V15.76c0-1.565 1.294-2.838 2.887-2.838h6.51c1.592 0 2.888 1.273 2.888 2.837v3.224c0 1.566-1.296 2.838-2.89 2.838H13.48c-.14 0-.252.11-.252.248 0 .136.113.247.252.247h2.848c1.87 0 3.392-1.495 3.392-3.333V15.76c0-.597-.162-1.156-.442-1.64h1.418c.14 0 .25-.112.25-.248 0-.137-.11-.248-.25-.248h-1.767c-.622-.73-1.556-1.197-2.6-1.197h-.172V9.332c0-1.087.9-1.972 2.007-1.972h4.708c1.106 0 2.007.885 2.007 1.972v2.32c0 1.088-.9 1.972-2.007 1.972h-.43L21.01 16.05c-.07.12-.028.27.092.34.04.022.083.032.126.032.087 0 .172-.044.218-.123l1.282-2.18h.14c1.385 0 2.51-1.107 2.51-2.467v-2.32c0-1.36-1.125-2.467-2.51-2.467" fill="#FDFDFD"/><path d="M19.145 11.88c.14 0 .252-.11.252-.248 0-.652.54-1.183 1.205-1.183.664 0 1.205.53 1.205 1.182 0 .137.113.248.252.248.138 0 .25-.11.25-.248 0-.926-.766-1.68-1.708-1.68s-1.71.754-1.71 1.68c0 .137.114.248.253.248M13.072 19.2c1.214 0 2.2-.968 2.2-2.16 0-.137-.11-.248-.25-.248s-.252.11-.252.248c0 .918-.762 1.667-1.698 1.667-.936 0-1.697-.75-1.697-1.667 0-.137-.113-.248-.253-.248s-.252.11-.252.248c0 1.192.988 2.16 2.202 2.16" fill="#FDFDFD"/></g></svg>