<svg width="32" height="32" viewBox="0 0 32 32" xmlns="http://www.w3.org/2000/svg"><title>TradeoffAnalytics</title><g fill="none" fill-rule="evenodd"><path d="M0 16.202C-.015 7.584 7.085.587 15.86.572c8.774-.016 15.9 6.958 15.914 15.575.015 8.618-7.085 15.616-15.86 15.63C7.142 31.795.015 24.82 0 16.203" fill="#BA8FF8"/><path d="M25.115 15.922H6.662c-.14 0-.252.11-.252.248 0 .136.112.247.252.247h8.974v7.315h-2.35c-.14 0-.254.11-.254.247 0 .135.113.246.253.246h5.206c.14 0 .253-.11.253-.247 0-.138-.113-.248-.252-.248h-2.35v-7.315h8.975c.14 0 .252-.11.252-.247s-.113-.248-.252-.248M20.985 9.33c1.456 0 2.642 1.163 2.642 2.594 0 1.43-1.186 2.595-2.642 2.595-1.457 0-2.643-1.165-2.643-2.596 0-1.43 1.186-2.595 2.643-2.595m0 5.683c1.734 0 3.145-1.386 3.145-3.09 0-1.703-1.41-3.088-3.145-3.088s-3.146 1.385-3.146 3.09c0 1.702 1.41 3.088 3.145 3.088M11.1 9.28c.538 0 .976.43.976.96s-.438.96-.977.96c-.54 0-.978-.43-.978-.96s.438-.96.977-.96m0 2.415c.815 0 1.48-.653 1.48-1.455s-.665-1.454-1.48-1.454c-.817 0-1.482.652-1.482 1.454 0 .802.665 1.455 1.48 1.455M13.072 12.553c.54 0 .977.43.977.96 0 .528-.44.96-.978.96s-.976-.432-.976-.96c0-.53.438-.96.976-.96m-1.48.96c0 .802.664 1.454 1.48 1.454.817 0 1.48-.652 1.48-1.454 0-.802-.663-1.454-1.48-1.454-.816 0-1.48.65-1.48 1.453M9.126 12.553c.54 0 .978.43.978.96 0 .528-.44.96-.978.96s-.976-.432-.976-.96c0-.53.438-.96.976-.96m0 2.414c.817 0 1.48-.652 1.48-1.454 0-.802-.663-1.454-1.48-1.454-.816 0-1.48.65-1.48 1.453 0 .802.664 1.454 1.48 1.454" fill="#FDFDFD"/></g></svg>