<svg width="32" height="32" viewBox="0 0 32 32" xmlns="http://www.w3.org/2000/svg"><title>VisualRecognition</title><g fill="none" fill-rule="evenodd"><path d="M0 16.202C-.015 7.584 7.085.587 15.86.572c8.774-.016 15.9 6.958 15.914 15.575.015 8.618-7.085 15.616-15.86 15.63C7.142 31.795.015 24.82 0 16.203" fill="#BA8FF8"/><path d="M11.537 19.692l4.604-2.555 2.806 4.834c.033.058.088.1.153.117.064.017.133.01.19-.024l2.55-1.445 2.832 4.37H11.537v-5.296zM6.93 11.645c0-2.362 1.957-4.284 4.362-4.284 1.33 0 2.52.59 3.323 1.516h-3.323c-.14 0-.252.11-.252.247v1.463c0 .137.113.247.252.247h4.28c.053.264.082.534.082.812 0 .24-.025.474-.064.704H8.987c-.14 0-.252.11-.252.246v1.464c0 .136.112.247.252.247h5.717c-.8.986-2.03 1.622-3.412 1.622-2.405 0-4.362-1.923-4.362-4.285zm8.12 2.167H9.24v-.968h6.237c-.102.343-.248.667-.428.968zm.395-3.473h-3.9v-.97h3.437c.193.3.35.625.463.97zm9.434 14.048l-2.746-4.236c-.073-.112-.222-.147-.34-.08l-2.536 1.437-2.804-4.832c-.07-.118-.222-.16-.342-.093l-4.575 2.54V16.41c1.613-.078 3.02-.93 3.846-2.187.02-.023.037-.05.048-.078.43-.685.69-1.482.72-2.338h8.73v12.58zm.498.872c0-.008.004-.015.004-.023V11.56c0-.137-.112-.248-.25-.248h-8.99c-.177-2.48-2.282-4.446-4.85-4.446-2.683 0-4.866 2.144-4.866 4.78 0 2.548 2.045 4.63 4.607 4.765v8.827c0 .136.113.247.252.247H25.13c.045 0 .085-.015.12-.035.006-.003.01-.002.016-.005.008-.005.012-.013.02-.018.013-.01.025-.02.036-.034.01-.013.02-.026.027-.04l.017-.04c.006-.018.01-.034.01-.053z" fill="#FDFDFD"/><path d="M20.544 13.822c.48 0 .868.383.868.853s-.39.853-.868.853c-.48 0-.87-.383-.87-.853s.39-.853.87-.853m0 2.2c.757 0 1.372-.604 1.372-1.347s-.615-1.348-1.372-1.348c-.757 0-1.372.605-1.372 1.348 0 .743.615 1.348 1.372 1.348" fill="#FDFDFD"/></g></svg>