<svg width="32" height="32" viewBox="0 0 32 32" xmlns="http://www.w3.org/2000/svg"><title>VisualInsights</title><g fill="none" fill-rule="evenodd"><path d="M0 16.202C-.015 7.584 7.085.587 15.86.572c8.774-.016 15.9 6.958 15.914 15.575.015 8.618-7.085 15.616-15.86 15.63C7.142 31.795.015 24.82 0 16.203" fill="#BA8FF8"/><path d="M21.775 24.99h3.104v-3.05h-3.105v3.05zM6.93 17.013l2.88-1.652 1.88 3.202c.034.057.09.098.153.115.065.015.134.007.192-.026l1.63-.923 1.78 2.73H6.93v-3.446zm8.722-5.123v7.97l-1.694-2.595c-.072-.11-.22-.147-.338-.08L12 18.1 10.12 14.9c-.033-.057-.088-.1-.153-.115-.064-.017-.133-.008-.192.025L6.93 16.44v-4.55h8.722zm7.65-4.24l1.413 2.664H21.89l1.413-2.665zm.024 7c.856 0 1.553.683 1.553 1.523 0 .84-.698 1.524-1.554 1.524-.856 0-1.552-.684-1.552-1.524s.696-1.524 1.552-1.524zm-2.03 1.77c.126.996.983 1.77 2.03 1.77 1.134 0 2.056-.904 2.056-2.017 0-1.114-.922-2.02-2.056-2.02-1.047 0-1.904.777-2.03 1.773h-2.59v-5.728c0-.695.375-1.047 1.112-1.047h2.12l-.685 1.297c-.042.076-.038.168.007.243.046.073.128.12.215.12h3.655c.088 0 .17-.047.216-.12.045-.075.05-.167.008-.243L23.526 7c-.086-.165-.36-.165-.446 0l-.878 1.655h-2.384c-1.01 0-1.615.577-1.615 1.543v5.728h-2.047v-4.282c0-.137-.112-.247-.252-.247H6.678c-.14 0-.252.11-.252.247v9.062c0 .137.113.247.252.247h9.226c.046 0 .086-.015.122-.035.004-.003.01 0 .014-.004.007-.005.01-.012.018-.017.014-.01.027-.023.038-.036.01-.01.02-.023.026-.037.008-.014.014-.028.02-.043l.01-.05c0-.008.004-.015.004-.024V16.42h2.047v5.722c0 .965.604 1.54 1.615 1.54h1.453v1.555c0 .136.114.247.253.247h3.607c.14 0 .252-.11.252-.247v-3.544c0-.136-.112-.247-.252-.247h-3.607c-.14 0-.252.11-.252.247v1.496H19.82c-.737 0-1.11-.353-1.11-1.048V16.42h2.588z" fill="#FDFDFD"/><path d="M12.733 13.078c.27 0 .49.216.49.482 0 .265-.22.48-.49.48s-.49-.215-.49-.48c0-.266.22-.482.49-.482m0 1.458c.548 0 .994-.438.994-.976 0-.54-.446-.976-.994-.976s-.994.437-.994.976c0 .538.445.976.993.976" fill="#FDFDFD"/></g></svg>